<?xml version="1.0" encoding="UTF-8" standalone="no"?>
<!DOCTYPE svg PUBLIC "-//W3C//DTD SVG 1.1//EN" "http://www.w3.org/Graphics/SVG/1.1/DTD/svg11.dtd">
<!-- Created with Vectornator (http://vectornator.io/) -->
<svg height="100%" stroke-miterlimit="10" style="fill-rule:nonzero;clip-rule:evenodd;stroke-linecap:round;stroke-linejoin:round;" version="1.1" viewBox="0 0 1000 1000" width="100%" xml:space="preserve" xmlns="http://www.w3.org/2000/svg" xmlns:vectornator="http://vectornator.io" xmlns:xlink="http://www.w3.org/1999/xlink">
<defs/>
<clipPath id="ArtboardFrame">
<rect height="1000" width="1000" x="0" y="0"/>
</clipPath>
<g clip-path="url(#ArtboardFrame)" id="Ebene-1" vectornator:layerName="Ebene 1">
<g opacity="1" vectornator:layerName="Kurve 1">
<path d="M681.375 46.1875C672.899 45.9991 664.409 46.2932 655.938 46.5C647.768 46.6995 639.586 47.0134 631.438 47.6562C620.291 48.5356 609.177 49.8732 598.125 51.5625C557.343 57.7962 517.249 70.2332 481.312 90.7188C442.253 112.984 407.63 142.556 376.469 174.781C335.152 217.509 299.283 265.173 265.188 313.75C234.12 358.014 204.621 403.329 173.375 447.469C160.69 465.388 147.71 483.111 134.062 500.312C122.051 515.453 109.518 530.21 96.0312 544.062C91.3626 548.858 86.5799 553.529 81.6562 558.062C56.2193 581.484 25.6151 602.369-9.53125 606.531C-18.483 607.591-27.4623 607.436-36.4062 606.406C-28.3524 607.593-20.2591 608.103-12.125 607.594C25.1875 605.259 58.2773 584.075 85.7188 560.125C90.407 556.033 94.9577 551.819 99.4375 547.5C113.494 533.949 126.641 519.461 139.25 504.562C153.75 487.431 167.555 469.74 181.094 451.844C213.507 409.001 244.287 364.932 276.625 322.031C295.554 296.92 314.939 272.157 335.375 248.25C356.629 223.387 378.985 199.434 403.188 177.406C421.562 160.683 441.022 145.123 461.75 131.406C473.474 123.648 485.639 116.444 498.25 110.219C540.579 89.3233 587.669 80.6481 634.562 79.1562C641.746 78.9277 648.937 78.7365 656.125 78.8438C663.688 78.9566 671.233 79.3926 678.781 79.8438C690.038 80.5166 701.281 81.3032 712.5 82.4688C735.537 84.8621 758.435 88.4517 781.125 93.0938C800.934 97.1463 820.611 101.929 840.031 107.562C852.284 111.117 864.484 114.936 876.438 119.406C885.423 122.873 895.533 118.392 899 109.406C902.467 100.42 897.986 90.3104 889 86.8438C878.123 82.6427 866.936 79.1223 855.781 75.75C837.822 70.3207 819.658 65.6019 801.344 61.5312C780.907 56.9889 760.267 53.3374 739.5 50.6875C720.22 48.2274 700.811 46.6194 681.375 46.1875Z" fill="#000000" stroke="none"/>
</g>
<g opacity="1" vectornator:layerName="Gruppieren 1">
<path d="M469.092 411.586L690.588 242.054L751.789 300.792L591.492 529.061L469.092 411.586Z" fill="#ff9a00" fill-rule="nonzero" opacity="1" stroke="#000000" stroke-linecap="butt" stroke-linejoin="round" stroke-width="8.48265" vectornator:layerName="Kurve 1"/>
<path d="M705.273 226.754C705.273 226.754 722.488 178.191 734.026 166.17C744.711 155.037 882.716 103.123 882.716 103.123C882.716 103.123 837.364 242.254 825.826 254.276C814.288 266.297 766.473 285.492 766.473 285.492L705.273 226.754Z" fill="#ff9a00" fill-rule="nonzero" opacity="1" stroke="#000000" stroke-linecap="butt" stroke-linejoin="round" stroke-width="8.48265" vectornator:layerName="Kurve 2"/>
<path d="M882.716 103.123L794.61 194.923L794.61 194.923" fill="#ff9a00" fill-rule="nonzero" opacity="1" stroke="#000000" stroke-linecap="butt" stroke-linejoin="round" stroke-width="8.48265" vectornator:layerName="Kurve 3"/>
<path d="M454.408 426.886L117.284 808.771L209.084 896.877L576.808 544.361L454.408 426.886Z" fill="#ff9a00" fill-rule="nonzero" opacity="1" stroke="#000000" stroke-linecap="butt" stroke-linejoin="round" stroke-width="8.48265" vectornator:layerName="Kurve 4"/>
<path d="M765.241 225.523C772.891 232.865 787.884 232.557 795.226 224.907C802.568 217.257 802.26 202.265 794.61 194.923C786.96 187.581 771.968 187.889 764.626 195.539C757.284 203.189 757.591 218.181 765.241 225.523Z" fill="#ff9a00" fill-rule="nonzero" opacity="1" stroke="#000000" stroke-linecap="butt" stroke-linejoin="round" stroke-width="8.48265" vectornator:layerName="Kurve 5"/>
<path d="M480 422.558L696.697 251.361" fill="none" opacity="1" stroke="#000000" stroke-linecap="butt" stroke-linejoin="round" stroke-width="26.0798" vectornator:layerName="Kurve 2"/>
<path d="M464.162 441.024L129.961 819.771" fill="none" opacity="1" stroke="#000000" stroke-linecap="butt" stroke-linejoin="round" stroke-width="26.0798" vectornator:layerName="Kurve 3"/>
<path d="M458.63 416.149L587.522 539.16" fill="none" opacity="1" stroke="#000000" stroke-linecap="butt" stroke-linejoin="round" stroke-width="19.8715" vectornator:layerName="Kurve 4"/>
<path d="M710.875 230.853L739.186 169.531L879.484 107.64" fill="none" opacity="1" stroke="#000000" stroke-linecap="butt" stroke-linejoin="round" stroke-width="11.3975" vectornator:layerName="Kurve 6"/>
</g>
</g>
</svg>
