<?xml version="1.0" encoding="UTF-8" standalone="no"?>
<!DOCTYPE svg PUBLIC "-//W3C//DTD SVG 1.1//EN" "http://www.w3.org/Graphics/SVG/1.1/DTD/svg11.dtd">
<!-- Created with Vectornator (http://vectornator.io/) -->
<svg height="100%" stroke-miterlimit="10" style="fill-rule:nonzero;clip-rule:evenodd;stroke-linecap:round;stroke-linejoin:round;" version="1.1" viewBox="0 0 1024 650" width="100%" xml:space="preserve" xmlns="http://www.w3.org/2000/svg" xmlns:vectornator="http://vectornator.io" xmlns:xlink="http://www.w3.org/1999/xlink">
<defs>
<linearGradient gradientTransform="matrix(2.47921 895.5 -895.5 2.47921 529.207 -225.417)" gradientUnits="userSpaceOnUse" id="LinearGradient" x1="0" x2="1" y1="0" y2="0">
<stop offset="0" stop-color="#ff9800"/>
<stop offset="1" stop-color="#ffb16b"/>
</linearGradient>
<filter color-interpolation-filters="sRGB" filterUnits="userSpaceOnUse" height="161.168" id="Filter" width="900.235" x="81.5685" y="529.777">
<feDropShadow dx="0" dy="-0" flood-color="#000000" flood-opacity="0.387127" in="SourceGraphic" result="Shadow" stdDeviation="25"/>
</filter>
<filter color-interpolation-filters="sRGB" filterUnits="userSpaceOnUse" height="261.172" id="Filter_2" width="897.126" x="82.8819" y="-18.9893">
<feDropShadow dx="0" dy="-0" flood-color="#000000" flood-opacity="0.387127" in="SourceGraphic" result="Shadow" stdDeviation="25"/>
</filter>
<filter color-interpolation-filters="sRGB" filterUnits="userSpaceOnUse" height="471.091" id="Filter_3" width="479.7" x="-14.814" y="117.644">
<feDropShadow dx="0" dy="-0" flood-color="#000000" flood-opacity="0.187666" in="SourceGraphic" result="Shadow" stdDeviation="25"/>
</filter>
<filter color-interpolation-filters="sRGB" filterUnits="userSpaceOnUse" height="351.2" id="Filter_4" width="347.98" x="356.885" y="226.096">
<feDropShadow dx="0" dy="-0" flood-color="#000000" flood-opacity="0.187666" in="SourceGraphic" result="Shadow" stdDeviation="25"/>
</filter>
<filter color-interpolation-filters="sRGB" filterUnits="userSpaceOnUse" height="494.905" id="Filter_5" width="490.868" x="-17.5684" y="104.385">
<feDropShadow dx="0" dy="-0" flood-color="#000000" flood-opacity="0.187666" in="SourceGraphic" result="Shadow" stdDeviation="25"/>
</filter>
<filter color-interpolation-filters="sRGB" filterUnits="userSpaceOnUse" height="368.423" id="Filter_6" width="361.61" x="350.474" y="219.428">
<feDropShadow dx="0" dy="-0" flood-color="#000000" flood-opacity="0.187666" in="SourceGraphic" result="Shadow" stdDeviation="25"/>
</filter>
<filter color-interpolation-filters="sRGB" filterUnits="userSpaceOnUse" height="471.091" id="Filter_7" width="479.7" x="550.701" y="117.644">
<feDropShadow dx="0" dy="-0" flood-color="#000000" flood-opacity="0.187666" in="SourceGraphic" result="Shadow" stdDeviation="25"/>
</filter>
<filter color-interpolation-filters="sRGB" filterUnits="userSpaceOnUse" height="494.905" id="Filter_8" width="490.868" x="550.701" y="104.385">
<feDropShadow dx="0" dy="-0" flood-color="#000000" flood-opacity="0.187666" in="SourceGraphic" result="Shadow" stdDeviation="25"/>
</filter>
<filter color-interpolation-filters="sRGB" filterUnits="userSpaceOnUse" height="155.5" id="Filter_9" width="164.137" x="804.376" y="22.9034">
<feDropShadow dx="-3.67321e-05" dy="10" flood-color="#000000" flood-opacity="0.333" in="SourceGraphic" result="Shadow" stdDeviation="5.34247"/>
</filter>
<filter color-interpolation-filters="sRGB" filterUnits="userSpaceOnUse" height="214.943" id="Filter_10" width="210.723" x="785.545" y="-11.9241">
<feDropShadow dx="-0" dy="0" flood-color="#000000" flood-opacity="0.19707" in="SourceGraphic" result="Shadow" stdDeviation="10.9075"/>
</filter>
</defs>
<g id="Ebene-4" vectornator:layerName="Ebene 4"/>
<g id="Ebene-6" vectornator:layerName="Ebene 6"/>
<g id="Ebene-3" vectornator:layerName="Ebene 3"/>
<g id="Ebene-2" vectornator:layerName="Ebene 2"/>
<g id="Ebene-7" vectornator:layerName="Ebene 7"/>
<g id="Ebene-8" vectornator:layerName="Ebene 8"/>
<g id="Ebene-5" vectornator:layerName="Ebene 5"/>
<clipPath id="ArtboardFrame">
<rect height="650" width="1024" x="0" y="0"/>
</clipPath>
<g clip-path="url(#ArtboardFrame)" id="Ebene-1" vectornator:layerName="Ebene 1">
<g opacity="1">
<path d="M134.19 43.5107L529.871 26.2595L926.105 43.5107L926.105 602.859L530.053 577.015L134.19 605.611L134.19 43.5107Z" fill="url(#LinearGradient)" fill-rule="nonzero" opacity="1" stroke="none"/>
<path d="M145.864 594.073C145.864 594.073 241.935 628.313 338.331 626.56C434.726 624.807 531.686 594.073 531.686 594.073C531.686 594.073 613.888 626.56 724.191 626.649C817.363 626.723 917.508 594.073 917.508 594.073" fill="none" filter="url(#Filter)" stroke="#000000" stroke-linecap="butt" stroke-linejoin="round" stroke-opacity="0.300015" stroke-width="3.59183" vectornator:shadowAngle="-1.52889" vectornator:shadowColor="#000000" vectornator:shadowOffset="0" vectornator:shadowOpacity="0.387127" vectornator:shadowRadius="50"/>
<path d="M156.675 43.5107C156.675 43.5107 272.479 68.6812 336.743 67.2354C404.611 65.7085 530.875 43.5107 530.875 43.5107C530.875 43.5107 661.518 66.9023 722.604 67.2354C822.349 67.7793 906.905 44.8281 906.905 44.8281L917.508 77.1149L805.743 179.683L527.56 157.317L225.036 179.683L145.382 77.1149L156.675 43.5107Z" fill="#ebebeb" fill-rule="nonzero" filter="url(#Filter_2)" stroke="none" vectornator:shadowAngle="-1.52889" vectornator:shadowColor="#000000" vectornator:shadowOffset="0" vectornator:shadowOpacity="0.387127" vectornator:shadowRadius="50"/>
<path d="M145.382 77.1149L145.382 595.256C145.382 595.256 248.148 628.286 338.331 626.489C428.513 624.692 531.279 595.256 531.279 595.256L531.279 77.1149C531.279 77.1149 434.805 100.794 338.331 101.468C241.856 102.142 145.382 77.1149 145.382 77.1149Z" fill="#ffffff" fill-rule="nonzero" opacity="1" stroke="none"/>
<path d="M530.875 77.1149L530.875 595.256C530.875 595.256 633.837 628.286 724.191 626.489C814.546 624.692 917.508 595.256 917.508 595.256L917.508 77.1149C917.508 77.1149 820.85 100.794 724.191 101.468C627.533 102.142 530.875 77.1149 530.875 77.1149Z" fill="#ffffff" fill-rule="nonzero" opacity="1" stroke="none"/>
<path d="M556.239 136.176C556.239 136.176 642.597 155.595 725.779 155.314C808.962 155.033 888.968 135.053 888.968 135.053" fill="none" opacity="1" stroke="#ffb952" stroke-linecap="butt" stroke-linejoin="round" stroke-width="3.59183"/>
<path d="M556.239 180.806C556.239 180.806 642.597 200.225 725.779 199.944C808.962 199.663 888.968 179.683 888.968 179.683" fill="none" opacity="1" stroke="#ffb952" stroke-linecap="butt" stroke-linejoin="round" stroke-width="3.59183"/>
<path d="M556.239 227.129C556.239 227.129 642.597 246.548 725.779 246.267C764.619 246.136 802.767 241.71 832.401 237.028C866.233 231.684 888.968 226.006 888.968 226.006" fill="none" opacity="1" stroke="#ffb952" stroke-linecap="butt" stroke-linejoin="round" stroke-width="3.59183"/>
<path d="M556.239 273.199C556.239 273.199 642.597 292.618 725.779 292.337C808.962 292.056 888.968 272.076 888.968 272.076" fill="none" opacity="1" stroke="#ffb952" stroke-linecap="butt" stroke-linejoin="round" stroke-width="3.59183"/>
<path d="M559.415 319.16C559.415 319.16 645.773 338.579 728.955 338.299C812.137 338.018 892.144 318.038 892.144 318.038" fill="none" opacity="1" stroke="#ffb952" stroke-linecap="butt" stroke-linejoin="round" stroke-width="3.59183"/>
<path d="M556.239 366.547C556.239 366.547 642.597 385.965 725.779 385.685C808.962 385.404 888.968 365.424 888.968 365.424" fill="none" opacity="1" stroke="#ffb952" stroke-linecap="butt" stroke-linejoin="round" stroke-width="3.59183"/>
<path d="M556.239 415.053C556.239 415.053 642.597 434.472 725.779 434.191C808.962 433.91 888.968 413.93 888.968 413.93" fill="none" opacity="1" stroke="#ffb952" stroke-linecap="butt" stroke-linejoin="round" stroke-width="3.59183"/>
<path d="M556.239 463.49C556.239 463.49 642.597 482.909 725.779 482.628C808.962 482.347 888.968 462.367 888.968 462.367" fill="none" opacity="1" stroke="#ffb952" stroke-linecap="butt" stroke-linejoin="round" stroke-width="3.59183"/>
<path d="M556.239 515.681C556.239 515.681 642.597 535.1 725.779 534.819C808.962 534.538 888.968 514.558 888.968 514.558" fill="none" opacity="1" stroke="#ffb952" stroke-linecap="butt" stroke-linejoin="round" stroke-width="3.59183"/>
<path d="M170.378 136.176C170.378 136.176 256.736 155.595 339.918 155.314C423.101 155.033 503.107 135.053 503.107 135.053" fill="none" opacity="1" stroke="#ffb952" stroke-linecap="butt" stroke-linejoin="round" stroke-width="3.59183"/>
<path d="M170.378 180.806C170.378 180.806 256.736 200.225 339.918 199.944C423.101 199.663 503.107 179.683 503.107 179.683" fill="none" opacity="1" stroke="#ffb952" stroke-linecap="butt" stroke-linejoin="round" stroke-width="3.59183"/>
<path d="M170.378 227.129C170.378 227.129 256.736 246.548 339.918 246.267C378.758 246.136 416.906 241.71 446.54 237.028C480.372 231.684 503.107 226.006 503.107 226.006" fill="none" opacity="1" stroke="#ffb952" stroke-linecap="butt" stroke-linejoin="round" stroke-width="3.59183"/>
<path d="M170.378 273.199C170.378 273.199 256.736 292.618 339.918 292.337C423.101 292.056 503.107 272.076 503.107 272.076" fill="none" opacity="1" stroke="#ffb952" stroke-linecap="butt" stroke-linejoin="round" stroke-width="3.59183"/>
<path d="M173.554 319.16C173.554 319.16 259.912 338.579 343.094 338.299C426.277 338.018 506.283 318.038 506.283 318.038" fill="none" opacity="1" stroke="#ffb952" stroke-linecap="butt" stroke-linejoin="round" stroke-width="3.59183"/>
<path d="M170.378 366.547C170.378 366.547 256.736 385.965 339.918 385.685C423.101 385.404 503.107 365.424 503.107 365.424" fill="none" opacity="1" stroke="#ffb952" stroke-linecap="butt" stroke-linejoin="round" stroke-width="3.59183"/>
<path d="M170.378 415.053C170.378 415.053 256.736 434.472 339.918 434.191C423.101 433.91 503.107 413.93 503.107 413.93" fill="none" opacity="1" stroke="#ffb952" stroke-linecap="butt" stroke-linejoin="round" stroke-width="3.59183"/>
<path d="M170.378 463.49C170.378 463.49 256.736 482.909 339.918 482.628C423.101 482.347 503.107 462.367 503.107 462.367" fill="none" opacity="1" stroke="#ffb952" stroke-linecap="butt" stroke-linejoin="round" stroke-width="3.59183"/>
<path d="M170.378 515.681C170.378 515.681 256.736 535.1 339.918 534.819C423.101 534.538 503.107 514.558 503.107 514.558" fill="none" opacity="1" stroke="#ffb952" stroke-linecap="butt" stroke-linejoin="round" stroke-width="3.59183"/>
<path d="M559.415 564.8C559.415 564.8 645.773 584.219 728.955 583.938C812.137 583.657 892.144 563.677 892.144 563.677" fill="none" opacity="1" stroke="#ffb952" stroke-linecap="butt" stroke-linejoin="round" stroke-width="3.59183"/>
<path d="M173.554 564.8C173.554 564.8 259.912 584.219 343.094 583.938C426.277 583.657 506.283 563.677 506.283 563.677" fill="none" opacity="1" stroke="#ffb952" stroke-linecap="butt" stroke-linejoin="round" stroke-width="3.59183"/>
<path d="M245.661 189.815L316.506 190.796L371.173 246.27L396.276 328.17L396.276 434.194L367.215 514.558L339.918 512.878L263.26 364.329L182.394 472.499L173.554 226.006L245.661 189.815Z" fill="none" opacity="1" stroke="#ffffff" stroke-linecap="square" stroke-linejoin="miter" stroke-width="52.0104"/>
<path d="M531.686 375.556L572.533 337.098L637.112 318.038L587.62 424.062L583.582 512.878L556.239 482.631L513.293 472.499L480.538 512.456L447.182 514.558L425.447 492.358L416.223 417.945L429.855 349.78L489.358 301.068L531.686 375.556Z" fill="none" opacity="1" stroke="#ffffff" stroke-linecap="butt" stroke-linejoin="bevel" stroke-width="52.0104"/>
<path d="M796.135 190.796L875.013 189.815L892.144 246.27L917.508 318.038L926.105 413.93L888.968 514.558L878.055 502.324L831.786 338.302L726.499 523.733L664.228 527.57L591.79 534.624L620.277 448.687L686.326 335.594L735.809 246.27L796.135 190.796Z" fill="none" opacity="1" stroke="#ffffff" stroke-linecap="square" stroke-linejoin="bevel" stroke-width="52.0104"/>
<path d="M531.445 77.1149L531.445 594.073" fill="none" opacity="1" stroke="#000000" stroke-linecap="butt" stroke-linejoin="round" stroke-opacity="0.300015" stroke-width="3.59183"/>
<g filter="url(#Filter_3)" vectornator:shadowAngle="-0.704004" vectornator:shadowColor="#000000" vectornator:shadowOffset="0" vectornator:shadowOpacity="0.187666" vectornator:shadowRadius="50">
<path d="M87.6865 437.42L225.036 230.098L328.703 204.055L378.474 332.039C378.474 332.039 362.92 489.647 350.888 501.263C339.314 512.436 320.958 432.343 307.265 403.639C295.44 378.849 270.091 332.144 235.399 335.774C200.706 339.404 184.098 384.61 184.098 384.61L117.378 501.263L71.5973 487.327L87.6865 437.42Z" fill="#ffffff" fill-rule="nonzero" stroke="none"/>
<path d="M310.375 189.094C309.406 189.096 308.001 189.592 307.125 189.812C305.505 190.219 303.901 190.624 302.281 191.031C296.882 192.388 291.493 193.737 286.094 195.094C269.356 199.298 252.613 203.514 235.875 207.719C228.856 209.482 221.832 211.237 214.812 213C213.193 213.407 211.557 213.812 209.938 214.219C209.398 214.354 208.884 214.489 208.344 214.625C207.735 214.778 207.092 214.891 206.562 215.25C205.935 215.675 205.566 216.351 205.156 216.969C204.799 217.509 204.451 218.054 204.094 218.594C203.378 219.674 202.653 220.733 201.938 221.812C199.434 225.592 196.941 229.377 194.438 233.156C184.78 247.733 175.126 262.298 165.469 276.875C144.007 309.268 122.524 341.669 101.062 374.062C93.9087 384.86 101.067 374.066 68.875 422.656C68.8461 422.693 68.8645 422.77 68.8438 422.812C68.8362 422.821 68.8196 422.835 68.8125 422.844C56.745 460.273 60.7824 447.774 56.75 460.281C55.7444 463.4 54.7244 466.506 53.7188 469.625C53.5511 470.145 53.3864 470.668 53.2188 471.188C52.9969 471.875 52.7663 472.513 52.9688 473.25C53.2327 474.211 53.8128 475.209 54.4062 475.969C55.324 477.144 56.2281 478.319 57.2812 479.375C59.9778 482.079 62.7239 484.772 65.6562 487.219C69.4799 490.409 73.4699 493.4 77.5312 496.281C79.6318 497.771 81.8964 499.022 84.125 500.312C86.7744 501.847 89.4206 502.598 92.2812 503.469C94.6657 504.195 97.0531 504.899 99.4375 505.625C105.637 507.512 111.832 509.425 118.031 511.312C122.323 512.619 126.614 513.912 130.906 515.219C132.236 515.624 134.733 516.644 135.938 516C136.482 515.709 136.945 514.635 137.219 514.156C137.393 513.852 137.576 513.554 137.75 513.25C137.924 512.946 138.107 512.648 138.281 512.344C139.498 510.217 140.721 508.064 141.938 505.938C146.803 497.432 151.666 488.943 156.531 480.438C171.648 454.009 186.758 427.585 201.875 401.156C202.223 400.548 202.565 399.924 202.906 399.312C203.201 398.784 203.362 398.151 203.594 397.594C204.072 396.442 204.6 395.319 205.125 394.188C206.825 390.521 208.726 386.93 210.812 383.469C218.992 369.904 230.723 356.767 246.438 352.25C251.847 350.695 257.603 350.192 263.156 351.219C264 351.375 264.797 351.681 265.625 351.906C266.31 352.78 267.089 353.583 267.75 354.469C271.789 359.88 275.391 365.584 278.75 371.438C283.141 379.088 287.335 387.057 290.75 395.188C293.633 402.051 296.103 409.111 298.5 416.156C301.629 425.352 304.604 434.602 307.688 443.812C310.572 452.431 313.498 461.041 316.906 469.469C319.337 475.479 321.957 481.579 325.75 486.875C328.331 490.48 331.453 493.734 334.719 496.719C336.736 498.562 338.759 500.396 340.875 502.125C345.688 506.057 350.723 509.78 356 513.062C357.507 514 359.075 514.817 360.656 515.625C361.875 516.248 363.355 516.868 364.719 517.219C367.057 517.82 369.07 517.099 370.438 515.125C372.185 512.602 373.111 509.464 374 506.562C375.439 501.862 376.567 497.055 377.594 492.25C380.961 476.496 383.406 460.509 385.656 444.562C388.917 421.451 391.763 398.291 394.344 375.094C395.068 368.581 395.787 362.079 396.469 355.562C396.703 353.322 396.929 351.085 397.156 348.844C397.216 348.25 397.284 347.656 397.344 347.062C397.361 346.888 397.437 346.644 397.406 346.469C397.163 345.082 396.54 343.808 396.031 342.5C395.254 340.5 394.496 338.5 393.719 336.5C391.386 330.501 389.052 324.499 386.719 318.5C379.461 299.836 372.196 281.164 364.938 262.5C360.79 251.835 356.647 241.165 352.5 230.5C351.334 227.5 350.167 224.5 349 221.5C348.205 219.455 347.524 217.239 346.125 215.5C345.128 214.261 344.138 212.986 343 211.875C339.909 208.859 336.823 205.845 333.469 203.125C329.408 199.833 325.134 196.815 320.812 193.875C318.95 192.608 316.928 191.585 314.938 190.531C314.218 190.151 313.447 189.855 312.688 189.562C311.975 189.288 311.148 189.092 310.375 189.094ZM323.375 225.062C324.221 227.238 325.06 229.418 325.906 231.594C334.461 253.591 343.008 275.596 351.562 297.594C353.636 302.926 355.739 308.261 357.812 313.594C358.331 314.927 358.825 316.261 359.344 317.594C359.398 317.733 359.505 317.831 359.531 318C359.523 318.085 359.508 318.165 359.5 318.25C359.461 318.636 359.414 319.02 359.375 319.406C359.274 320.41 359.166 321.403 359.062 322.406C358.673 326.199 358.281 329.99 357.875 333.781C356.083 350.513 354.163 367.241 352.062 383.938C350.31 397.871 348.443 411.797 346.375 425.688C344.779 436.409 342.964 447.115 340.844 457.75C338.807 451.556 336.765 445.377 334.625 439.219C332.47 433.017 330.249 426.815 327.656 420.781C324.834 414.214 321.543 407.807 318.125 401.531C311.797 389.913 304.604 378.756 296.031 368.656C287.141 358.183 276.856 348.895 265.906 340.625C262.476 338.034 258.976 335.567 255.375 333.219C244.734 326.28 232.638 319.909 219.562 320.5C201.994 321.294 187.869 333.078 177.969 346.781C174.563 351.496 171.549 356.523 168.938 361.719C168.005 363.575 167.134 365.435 166.312 367.344C166.039 367.98 165.47 369.582 165.281 369.906C162.819 374.141 160.432 378.404 158 382.656C143.058 408.782 128.098 434.906 113.156 461.031C111.071 464.677 108.991 468.323 106.906 471.969C105.69 474.095 104.466 476.217 103.25 478.344C102.555 479.559 101.851 480.785 101.156 482C100.809 482.608 100.472 483.205 100.125 483.812C99.9513 484.116 99.7675 484.415 99.5938 484.719C99.42 485.023 99.2675 485.321 99.0938 485.625C99.0067 485.777 99.0391 485.746 99 485.812C98.7112 485.725 98.4138 485.65 98.125 485.562C97.4025 485.343 96.6912 485.126 95.9688 484.906C96.1525 484.336 96.3162 483.758 96.5 483.188C97.8326 479.054 96.6415 482.769 106.5 452.188C116.157 437.61 112.955 442.426 116.156 437.594C121.879 428.955 127.59 420.326 133.312 411.688C150.123 386.312 166.939 360.938 183.75 335.562C200.203 310.727 216.641 285.898 233.094 261.062C235.597 257.283 238.121 253.498 240.625 249.719C240.983 249.179 241.33 248.634 241.688 248.094C242.045 247.554 242.424 247.009 242.781 246.469C243.088 246.006 243.345 245.444 243.812 245.125C244.146 244.898 244.584 244.847 244.969 244.75C245.509 244.614 246.054 244.479 246.594 244.344C247.674 244.072 248.764 243.803 249.844 243.531C254.163 242.446 258.493 241.366 262.812 240.281C277.93 236.483 293.038 232.673 308.156 228.875C313.231 227.6 318.301 226.337 323.375 225.062Z" fill="#ffffff" stroke="none"/>
</g>
<g filter="url(#Filter_4)" vectornator:shadowAngle="-0.704004" vectornator:shadowColor="#000000" vectornator:shadowOffset="0" vectornator:shadowOpacity="0.187666" vectornator:shadowRadius="50">
<path d="M499.146 428.381L458.231 501.263C458.231 501.263 459.592 492.488 445.725 496.465C431.857 500.441 431.857 491.145 431.857 491.145L446.214 403.639L486.381 321.188L522.8 301.068L516.051 411.539L629.893 306.976L576.768 422.937L584.325 502.324C584.325 502.324 565.362 480.809 545.223 462.588C525.084 444.368 499.146 428.381 499.146 428.381Z" fill="#ffffff" fill-rule="nonzero" stroke="none"/>
<path d="M513.781 293.5C512.813 293.148 511.634 294.064 510.844 294.5C510.464 294.71 510.098 294.947 509.719 295.156C509.339 295.366 508.942 295.572 508.562 295.781C505.907 297.248 503.249 298.721 500.594 300.188C494.903 303.331 489.222 306.45 483.531 309.594C482.014 310.432 480.486 311.287 478.969 312.125C478.589 312.335 478.222 312.538 477.844 312.75C477.432 312.981 476.914 313.091 476.594 313.438C476.248 313.812 476.163 314.355 475.938 314.812C475.304 316.098 474.659 317.399 474.031 318.688C472.567 321.694 471.121 324.682 469.656 327.688C462.125 343.147 454.594 358.634 447.062 374.094C444.552 379.247 442.042 384.378 439.531 389.531C438.694 391.249 437.834 392.969 437 394.688C436.784 395.133 436.526 395.559 436.375 396.031C436.087 396.931 436.059 397.88 435.906 398.812C435.757 399.724 435.587 400.651 435.438 401.562C434.839 405.209 434.254 408.854 433.656 412.5C431.862 423.438 430.076 434.374 428.281 445.312C426.786 454.428 425.277 463.541 423.781 472.656C423.333 475.391 422.886 478.14 422.438 480.875C422.212 482.249 421.833 483.504 422.125 484.875C422.84 488.234 425.55 490.898 427.938 493.156C428.872 494.04 429.86 494.891 430.844 495.719C433.12 497.633 435.174 499.211 437.625 500.875C441.354 503.405 445.302 505.582 449.906 505.312C451.439 505.223 452.953 504.947 454.438 504.562C456.445 504.043 458.616 503.386 460.75 503.312C463.18 505.197 465.599 507.088 468.031 508.969C468.04 508.976 468.056 508.947 468.062 508.938C468.134 508.826 468.185 508.709 468.25 508.594C468.396 508.334 468.542 508.072 468.688 507.812C469.116 507.049 469.54 506.295 469.969 505.531C471.247 503.254 472.534 500.965 473.812 498.688C477.222 492.614 480.622 486.542 484.031 480.469C490.211 469.461 496.382 458.445 502.562 447.438C504.054 444.78 505.571 442.126 507.062 439.469C507.276 439.089 507.474 438.723 507.688 438.344C507.804 438.137 508.201 437.403 508.375 437.094C510.573 438.535 512.741 439.98 514.906 441.469C522.08 446.402 529.104 451.597 535.781 457.188C542.602 462.898 548.98 469.135 555.25 475.438C562.417 482.642 569.454 490.012 576.188 497.625C582.136 501.78 588.024 506.023 594.031 510.094C594.116 510.151 594.146 509.907 594.188 509.812C594.252 509.666 594.139 509.337 594.125 509.188C594.123 509.163 594.127 509.149 594.125 509.125C594.065 508.492 593.998 507.852 593.938 507.219C593.741 505.151 593.572 503.099 593.375 501.031C592.863 495.656 592.324 490.281 591.812 484.906C590.593 472.089 589.376 459.255 588.156 446.438C587.802 442.716 587.448 439.002 587.094 435.281C586.976 434.041 586.883 432.801 586.75 431.562C586.712 431.213 586.542 430.842 586.625 430.5C586.776 429.88 587.17 429.361 587.438 428.781C587.715 428.178 587.973 427.573 588.25 426.969C589.08 425.157 589.92 423.343 590.75 421.531C593.794 414.888 596.831 408.237 599.875 401.594C609.006 381.663 618.15 361.743 627.281 341.812C630.602 334.565 633.898 327.31 637.219 320.062C637.495 319.459 637.786 318.854 638.062 318.25C638.339 317.646 638.63 317.041 638.906 316.438C639.084 316.051 639.715 314.929 639.531 314.562C639.254 314.009 639.105 313.329 638.625 312.938C632.908 308.277 626.982 303.859 621.031 299.5C620.78 299.316 620.436 299.422 620.125 299.406C619.825 299.391 619.46 299.838 619.25 300.031C618.954 300.304 618.671 300.571 618.375 300.844C617.189 301.933 615.998 303.036 614.812 304.125C610.366 308.209 605.916 312.291 601.469 316.375C583.384 332.985 565.303 349.609 547.219 366.219C540.84 372.077 534.441 377.923 528.062 383.781C528.892 370.212 529.733 356.663 530.562 343.094C530.844 338.491 531.125 333.884 531.406 329.281C531.617 325.829 531.82 322.358 532.031 318.906C532.102 317.756 532.18 316.619 532.25 315.469C532.32 314.318 532.398 313.151 532.469 312C532.504 311.425 532.527 310.857 532.562 310.281C532.607 309.549 532.715 308.825 532.312 308.156C532.08 307.77 531.903 307.328 531.594 307C529.853 305.155 528.162 303.248 526.188 301.656C522.932 299.03 519.435 296.7 515.938 294.406C515.287 293.98 514.512 293.766 513.781 293.5ZM511.281 320.594C510.988 325.399 510.7 330.195 510.406 335C509.493 349.96 508.57 364.915 507.656 379.875C507.34 385.053 507.035 390.228 506.719 395.406C506.648 396.557 506.57 397.724 506.5 398.875C506.465 399.45 506.441 400.018 506.406 400.594C506.325 401.924 505.878 403.953 506.875 405.062C508.445 406.808 509.887 408.688 511.719 410.156C515.545 413.224 519.681 415.935 523.781 418.625C524.261 418.94 524.851 418.981 525.406 419.125C525.955 419.267 526.335 418.793 526.688 418.469C526.984 418.196 527.297 417.929 527.594 417.656C527.89 417.384 528.172 417.116 528.469 416.844C528.765 416.571 529.079 416.304 529.375 416.031C529.671 415.759 529.954 415.491 530.25 415.219C530.546 414.946 530.829 414.679 531.125 414.406C531.421 414.134 531.735 413.866 532.031 413.594C538.553 407.603 545.072 401.584 551.594 395.594C565.601 382.727 579.617 369.866 593.625 357C592.748 358.915 591.877 360.835 591 362.75C585.466 374.829 579.94 386.889 574.406 398.969C572.746 402.593 571.098 406.22 569.438 409.844C568.884 411.052 568.332 412.26 567.781 413.469C567.495 414.097 567.058 414.701 566.906 415.375C566.801 415.843 566.991 416.335 567.031 416.812C567.101 417.64 567.171 418.454 567.25 419.281C567.447 421.349 567.647 423.401 567.844 425.469C568.592 433.325 569.346 441.206 570.094 449.062C571.078 459.399 572.047 469.726 573.031 480.062C573.258 482.441 573.492 484.809 573.719 487.188C569.613 482.966 565.577 478.688 561.344 474.594C555.539 468.979 549.623 463.45 543.469 458.219C534.384 450.497 524.889 443.289 515.156 436.406C510.372 433.023 505.501 429.703 500.594 426.5C499.245 425.62 497.922 424.769 496.562 423.906C495.965 423.527 496.538 423.884 494.531 422.625C494.506 422.645 494.609 422.812 494.594 422.844C491.908 421.213 489.729 420.154 489.312 420.688C488.673 421.826 489.715 421.497 488.688 421.844C488.275 421.983 488.244 422.589 488.031 422.969C487.818 423.348 487.619 423.745 487.406 424.125C486.341 426.023 485.284 427.915 484.219 429.812C480.383 436.645 476.523 443.48 472.688 450.312C467.147 460.182 461.634 470.037 456.094 479.906C454.389 482.943 452.674 485.995 450.969 489.031C450.776 489.374 450.599 489.72 450.406 490.062C450.309 490.004 450.222 489.933 450.125 489.875C448.575 488.938 446.823 488.137 445.031 487.781C444.524 487.681 444.03 487.688 443.531 487.656C444.423 482.223 445.327 476.777 446.219 471.344C448.462 457.671 450.694 443.985 452.938 430.312C453.685 425.755 454.44 421.214 455.188 416.656C455.412 415.289 455.622 413.93 455.844 412.562C455.914 412.128 455.928 411.669 456.062 411.25C456.349 410.357 456.902 409.562 457.312 408.719C457.94 407.43 458.56 406.132 459.188 404.844C461.279 400.549 463.377 396.263 465.469 391.969C471.536 379.515 477.589 367.079 483.656 354.625C486.585 348.613 489.509 342.575 492.438 336.562C493.274 334.845 494.132 333.155 494.969 331.438C495.178 331.008 495.387 330.556 495.594 330.125C495.787 329.724 495.855 329.266 496.156 328.938C496.423 328.646 496.84 328.563 497.188 328.375C497.568 328.168 497.964 327.96 498.344 327.75C500.241 326.702 502.134 325.642 504.031 324.594C506.448 323.259 508.865 321.929 511.281 320.594Z" fill="#ffffff" stroke="none"/>
</g>
<g filter="url(#Filter_5)" vectornator:shadowAngle="-0.704004" vectornator:shadowColor="#000000" vectornator:shadowOffset="0" vectornator:shadowOpacity="0.187666" vectornator:shadowRadius="50">
<path d="M283.031 175.719C276.543 175.584 270.037 176.189 263.625 177.188C249.915 179.321 236.601 183.709 224.344 190.219C212.065 196.74 200.968 205.335 191.125 215.125C179.48 226.708 169.809 240.038 160.125 253.25C148.683 268.86 137.562 284.686 127 300.906C117.471 315.54 108.389 330.48 99.75 345.656C90.0434 362.708 80.6627 379.948 71.4688 397.281C66.156 407.298 61.4116 417.632 57.5938 428.312C54.4384 437.14 51.866 446.254 50.625 455.562C49.2959 465.531 49.4343 476.243 54.0312 485.406C56.9548 491.234 61.4953 496.118 66.1875 500.562C71.1739 505.286 76.5099 509.647 82.0625 513.688C85.7663 516.383 89.5798 518.952 93.5625 521.219C97.8778 523.675 102.441 525.815 107.281 527C110.792 527.859 114.425 528.156 118.031 527.906C134.294 526.781 148.522 515.121 157.938 502.562C160.355 499.339 162.489 495.932 164.594 492.5C166.656 489.137 168.677 485.756 170.656 482.344C177.829 469.98 184.368 457.285 190.688 444.469C196.393 432.898 201.875 421.114 208.875 410.25C212.3 404.934 216.133 399.912 220.188 395.062C225.156 389.12 230.511 383.457 236.219 378.219C249.166 366.336 265.173 355.163 283.156 353.562C284.516 351.934 277.523 343.845 267.531 335.5C257.539 327.155 248.36 321.715 247 323.344C227.845 325.057 210.971 336.995 197.344 349.812C187.587 358.99 178.513 369.476 171.25 380.75C163.84 392.251 158.115 404.758 152.062 417C145.418 430.438 138.456 443.693 130.812 456.594C127.519 462.153 124.255 467.824 120.375 473C113.533 482.127 104.65 490.237 94.0312 494.688C92.0771 495.506 89.9952 496.19 87.875 496.719C87.7542 493.683 87.8363 490.644 88.125 487.625C88.9443 479.059 91.0132 470.641 93.6562 462.469C97.5075 450.561 102.638 439.08 108.438 428C113.044 419.199 117.811 410.473 122.562 401.75C132.809 382.938 143.363 364.269 154.656 346.062C164.709 329.856 175.337 314.019 186.375 298.469C192.446 289.916 198.626 281.463 204.906 273.062C208.514 268.236 212.11 263.375 215.938 258.719C220.916 252.662 226.25 246.898 231.969 241.531C242.061 232.061 253.415 223.908 265.906 217.906C278.398 211.904 291.893 208.136 305.656 206.594C314.59 205.593 323.671 205.539 332.469 207.594C333.659 207.872 334.847 208.238 336.031 208.594C337.758 211.182 339.36 213.845 340.812 216.594C348.676 231.478 353.849 247.626 357.688 263.969C361.11 278.544 363.508 293.374 365.156 308.25C367.041 325.266 367.97 342.38 367.969 359.5C367.967 375.003 367.211 390.501 365.438 405.906C364.074 417.754 362.12 429.582 359.219 441.156C358.147 445.432 356.971 449.656 355.594 453.844C354.593 456.886 353.483 459.906 352.281 462.875C346.334 477.564 336.535 494.261 319.781 497.812C318.425 499.456 325.507 507.522 335.594 515.844C345.68 524.165 354.956 529.581 356.312 527.938C370.247 524.979 379.381 513.596 385.656 501.531C390.794 491.655 394.299 480.961 397 470.188C400.772 455.144 402.985 439.752 404.312 424.312C407.128 391.549 406.06 358.292 401.625 325.719C398.679 304.084 394.272 282.376 386.531 261.906C382.252 250.589 376.956 239.43 369.906 229.562C361.58 217.908 350.828 208.082 339.531 199.375C329.748 191.835 319.174 184.708 307.531 180.344C301.731 178.17 295.66 176.767 289.5 176.125C287.343 175.9 285.194 175.764 283.031 175.719Z" fill="#fc9d11" stroke="none"/>
</g>
<g filter="url(#Filter_6)" vectornator:shadowAngle="-0.704004" vectornator:shadowColor="#000000" vectornator:shadowOffset="0" vectornator:shadowOpacity="0.187666" vectornator:shadowRadius="50">
<path d="M516.5 286.656C512.934 286.959 509.425 287.752 506.031 288.875C490.274 294.088 476.713 305.798 466.156 318.281C452.805 334.069 443.002 352.612 435.594 371.844C433 378.577 430.713 385.427 428.562 392.312C424.352 405.797 420.694 419.516 418.25 433.438C416.447 443.708 415.254 454.183 415.656 464.625C415.914 471.32 416.831 478.113 419.219 484.406C421.993 491.719 426.963 497.52 432.812 502.625C437.842 507.015 443.328 511.143 449.344 514.094C452.04 515.416 455.043 516.671 458.062 516.938C461.866 517.273 465.661 516.036 469.031 514.375C474.163 511.846 478.728 508.218 482.875 504.312C488.551 498.967 493.559 492.916 498.062 486.562C506.856 474.155 513.659 460.501 519.062 446.312C519.749 445.426 515.906 441.308 510.469 437.094C505.031 432.879 500.062 430.176 499.375 431.062C492.884 448.107 484.314 464.5 472.719 478.656C466.897 485.764 460.245 492.619 452.281 497.312C448.771 499.381 444.72 501.236 440.562 501.219C440.333 501.218 440.131 501.111 439.906 501.094C438.045 497.224 436.932 492.846 436.281 488.812C434.314 476.62 435.469 463.991 437.406 451.875C439.81 436.841 443.747 422.053 448.281 407.531C455.125 385.615 463.716 364.485 476.812 345.469C487.462 330.007 501.479 315.164 518.75 307.156C521.186 306.027 523.709 305.078 526.281 304.281C525.794 307.82 525.2 311.334 524.406 314.812C522.077 325.027 519.115 335.11 516.375 345.219C515.428 348.713 514.53 352.198 513.688 355.719C513.013 358.537 512.335 361.326 511.875 364.188C511.112 368.935 510.16 373.666 510.406 378.5C510.499 380.327 510.743 382.181 511.375 383.906C511.942 385.454 512.828 386.911 513.906 388.156C514.73 389.107 515.551 390.078 516.469 390.938C518.292 392.645 520.163 394.297 522.125 395.844C524.129 397.423 526.212 398.879 528.344 400.281C529.422 400.99 530.57 401.6 531.719 402.188C532.262 402.465 532.865 402.664 533.438 402.875C534.583 403.297 535.926 403.623 537.156 403.5C539.595 403.257 542.164 400.995 543.938 399.469C546.186 397.534 548.293 395.422 550.344 393.281C551.397 392.182 552.439 391.091 553.469 389.969C559.26 383.659 564.808 377.101 570.375 370.594C578.971 360.546 587.563 350.48 596.656 340.875C601.511 335.747 606.494 330.743 611.812 326.094C615.432 322.93 619.191 319.882 623.281 317.344C624.345 316.683 625.496 316.116 626.625 315.531C626.338 317.032 625.995 318.512 625.594 319.969C624.078 325.47 621.933 330.807 619.656 336.031C616.512 343.245 613.014 350.305 609.438 357.312C603.618 368.715 597.602 380.005 591.781 391.406C588.868 397.112 585.909 402.832 583.375 408.719C581.21 413.748 579.337 418.928 577.812 424.188C573.011 440.754 571.614 458.11 572.812 475.281C573.525 485.484 575.226 495.544 577.062 505.594C576.406 506.48 580.279 510.439 585.719 514.469C591.158 518.498 596.093 521.074 596.75 520.188C594.926 510.206 593.238 500.197 592.531 490.062C591.342 473.021 592.766 455.815 597.531 439.375C599.047 434.147 600.879 429 603.031 424C605.559 418.128 608.5 412.411 611.406 406.719C616.582 396.58 621.906 386.522 627.125 376.406C631.018 368.861 634.867 361.279 638.344 353.531C641.022 347.563 643.54 341.473 645.281 335.156C646.773 329.744 648.108 323.29 645.688 317.938C644.827 316.036 643.52 314.35 642.125 312.812C639.208 309.597 635.874 306.754 632.406 304.156C630.984 303.091 629.524 302.089 628.031 301.125C625.164 299.273 621.964 297.461 618.5 297.094C614.67 296.688 610.87 298.023 607.5 299.719C602.464 302.252 597.93 305.764 593.656 309.406C587.291 314.83 581.401 320.808 575.688 326.906C567.107 336.065 558.969 345.622 550.812 355.156C544.706 362.293 538.564 369.457 532.094 376.281C532.479 374.47 532.976 372.674 533.406 370.875C534.122 367.883 534.851 364.907 535.656 361.938C537.476 355.223 539.325 348.532 541.125 341.812C542.888 335.229 544.619 328.602 545.75 321.875C546.371 318.182 546.858 314.378 546.656 310.625C546.546 308.567 546.202 306.489 545.281 304.625C544.527 303.099 543.431 301.645 542.25 300.438C540.867 299.024 539.482 297.616 537.969 296.344C535.71 294.444 533.377 292.643 530.969 290.938C529.528 289.917 527.977 289.051 526.438 288.188C523.303 286.429 519.996 286.359 516.5 286.656Z" fill="#ff871c" stroke="none"/>
</g>
<g opacity="1" vectornator:layerName="Gruppieren 1">
<g filter="url(#Filter_7)" vectornator:shadowAngle="-0.704004" vectornator:shadowColor="#000000" vectornator:shadowOffset="0" vectornator:shadowOpacity="0.187666" vectornator:shadowRadius="50">
<path d="M653.201 437.42L790.55 230.098L894.217 204.055L943.989 332.039C943.989 332.039 928.435 489.647 916.402 501.263C904.828 512.436 886.473 432.343 872.78 403.639C860.954 378.849 835.606 332.144 800.913 335.774C766.221 339.404 749.612 384.61 749.612 384.61L682.892 501.263L637.112 487.327L653.201 437.42Z" fill="#ffffff" fill-rule="nonzero" stroke="none"/>
<path d="M875.906 189.094C874.937 189.096 873.532 189.592 872.656 189.812C871.036 190.219 869.401 190.624 867.781 191.031C862.382 192.388 856.993 193.737 851.594 195.094C834.856 199.298 818.113 203.514 801.375 207.719C794.356 209.482 787.332 211.237 780.312 213C778.693 213.407 777.089 213.812 775.469 214.219C774.929 214.354 774.384 214.489 773.844 214.625C773.235 214.778 772.623 214.891 772.094 215.25C771.466 215.675 771.097 216.351 770.688 216.969C770.33 217.509 769.951 218.054 769.594 218.594C768.878 219.674 768.184 220.733 767.469 221.812C764.965 225.592 762.441 229.377 759.938 233.156C750.28 247.733 740.626 262.298 730.969 276.875C709.507 309.268 688.055 341.669 666.594 374.062C659.44 384.86 666.598 374.066 634.406 422.656C634.372 422.7 634.398 422.791 634.375 422.844C634.369 422.85 634.349 422.837 634.344 422.844C622.276 460.273 626.282 447.774 622.25 460.281C621.244 463.4 620.256 466.506 619.25 469.625C619.082 470.145 618.918 470.668 618.75 471.188C618.528 471.875 618.266 472.513 618.469 473.25C618.733 474.211 619.344 475.209 619.938 475.969C620.855 477.144 621.759 478.319 622.812 479.375C625.509 482.079 628.224 484.772 631.156 487.219C634.98 490.409 639.001 493.4 643.062 496.281C645.163 497.771 647.396 499.022 649.625 500.312C652.274 501.847 654.921 502.598 657.781 503.469C660.166 504.195 662.553 504.899 664.938 505.625C671.137 507.512 677.332 509.425 683.531 511.312C687.823 512.619 692.114 513.912 696.406 515.219C697.736 515.624 700.264 516.644 701.469 516C702.013 515.709 702.476 514.635 702.75 514.156C702.924 513.852 703.108 513.554 703.281 513.25C703.455 512.946 703.607 512.648 703.781 512.344C704.998 510.217 706.221 508.064 707.438 505.938C712.303 497.432 717.166 488.943 722.031 480.438C737.148 454.009 752.258 427.585 767.375 401.156C767.723 400.548 768.096 399.924 768.438 399.312C768.733 398.784 768.894 398.151 769.125 397.594C769.603 396.442 770.1 395.319 770.625 394.188C772.325 390.521 774.226 386.93 776.312 383.469C784.492 369.904 796.254 356.767 811.969 352.25C817.378 350.695 823.103 350.192 828.656 351.219C829.495 351.374 830.302 351.683 831.125 351.906C831.811 352.781 832.588 353.582 833.25 354.469C837.289 359.88 840.922 365.584 844.281 371.438C848.672 379.088 852.866 387.057 856.281 395.188C859.165 402.051 861.603 409.111 864 416.156C867.129 425.352 870.104 434.602 873.188 443.812C876.072 452.431 878.998 461.041 882.406 469.469C884.837 475.479 887.489 481.579 891.281 486.875C893.863 490.48 896.953 493.734 900.219 496.719C902.236 498.562 904.259 500.396 906.375 502.125C911.188 506.057 916.223 509.78 921.5 513.062C923.007 514 924.575 514.817 926.156 515.625C927.375 516.248 928.886 516.868 930.25 517.219C932.588 517.82 934.57 517.099 935.938 515.125C937.685 512.602 938.643 509.464 939.531 506.562C940.971 501.862 942.067 497.055 943.094 492.25C946.461 476.496 948.906 460.509 951.156 444.562C954.417 421.451 957.294 398.291 959.875 375.094C960.6 368.581 961.287 362.079 961.969 355.562C962.203 353.322 962.429 351.085 962.656 348.844C962.716 348.25 962.784 347.656 962.844 347.062C962.861 346.888 962.937 346.644 962.906 346.469C962.663 345.082 962.071 343.808 961.562 342.5C960.785 340.5 959.996 338.5 959.219 336.5C956.886 330.501 954.552 324.499 952.219 318.5C944.961 299.836 937.696 281.164 930.438 262.5C926.29 251.835 922.147 241.165 918 230.5C916.834 227.5 915.667 224.5 914.5 221.5C913.705 219.455 913.055 217.239 911.656 215.5C910.659 214.261 909.67 212.986 908.531 211.875C905.44 208.859 902.323 205.845 898.969 203.125C894.908 199.833 890.634 196.815 886.312 193.875C884.45 192.608 882.428 191.585 880.438 190.531C879.718 190.151 878.947 189.855 878.188 189.562C877.475 189.288 876.68 189.092 875.906 189.094ZM888.906 225.062C889.752 227.238 890.591 229.418 891.438 231.594C899.992 253.591 908.539 275.596 917.094 297.594C919.168 302.926 921.239 308.261 923.312 313.594C923.831 314.927 924.356 316.261 924.875 317.594C924.928 317.731 925.005 317.833 925.031 318C925.023 318.084 925.008 318.166 925 318.25C924.961 318.636 924.945 319.02 924.906 319.406C924.805 320.41 924.697 321.403 924.594 322.406C924.204 326.199 923.812 329.99 923.406 333.781C921.614 350.513 919.694 367.241 917.594 383.938C915.841 397.871 913.943 411.797 911.875 425.688C910.277 436.421 908.468 447.135 906.344 457.781C904.304 451.579 902.299 445.386 900.156 439.219C898.002 433.017 895.781 426.815 893.188 420.781C890.365 414.214 887.043 407.807 883.625 401.531C877.297 389.913 870.104 378.756 861.531 368.656C852.641 358.183 842.356 348.895 831.406 340.625C827.976 338.034 824.476 335.567 820.875 333.219C810.234 326.28 798.17 319.909 785.094 320.5C767.526 321.294 753.369 333.078 743.469 346.781C740.063 351.496 737.08 356.523 734.469 361.719C733.536 363.575 732.634 365.435 731.812 367.344C731.539 367.98 731.001 369.582 730.812 369.906C728.35 374.141 725.932 378.404 723.5 382.656C708.558 408.782 693.629 434.906 678.688 461.031C676.603 464.677 674.491 468.323 672.406 471.969C671.19 474.095 669.998 476.217 668.781 478.344C668.086 479.559 667.382 480.785 666.688 482C666.34 482.608 666.004 483.205 665.656 483.812C665.483 484.116 665.299 484.415 665.125 484.719C664.951 485.023 664.767 485.321 664.594 485.625C664.507 485.777 664.539 485.746 664.5 485.812C664.221 485.727 663.936 485.648 663.656 485.562C662.931 485.342 662.194 485.127 661.469 484.906C661.653 484.336 661.816 483.758 662 483.188C663.333 479.054 662.141 482.769 672 452.188C681.657 437.61 678.455 442.426 681.656 437.594C687.379 428.955 693.121 420.326 698.844 411.688C715.654 386.312 732.44 360.938 749.25 335.562C765.703 310.727 782.172 285.898 798.625 261.062C801.129 257.283 803.621 253.498 806.125 249.719C806.483 249.179 806.861 248.634 807.219 248.094C807.576 247.554 807.924 247.009 808.281 246.469C808.588 246.006 808.845 245.444 809.312 245.125C809.646 244.898 810.115 244.847 810.5 244.75C811.04 244.614 811.585 244.479 812.125 244.344C813.205 244.072 814.264 243.803 815.344 243.531C819.663 242.446 823.993 241.366 828.312 240.281C843.43 236.483 858.538 232.673 873.656 228.875C878.735 227.599 883.828 226.338 888.906 225.062Z" fill="#ffffff" stroke="none"/>
</g>
<g filter="url(#Filter_8)" vectornator:shadowAngle="-0.704004" vectornator:shadowColor="#000000" vectornator:shadowOffset="0" vectornator:shadowOpacity="0.187666" vectornator:shadowRadius="50">
<path d="M851.281 175.719C844.793 175.584 838.287 176.189 831.875 177.188C818.165 179.321 804.851 183.709 792.594 190.219C780.315 196.74 769.218 205.335 759.375 215.125C747.73 226.708 738.09 240.038 728.406 253.25C716.965 268.86 705.844 284.686 695.281 300.906C685.752 315.54 676.67 330.48 668.031 345.656C658.325 362.708 648.944 379.948 639.75 397.281C634.437 407.298 629.693 417.632 625.875 428.312C622.72 437.14 620.147 446.254 618.906 455.562C617.577 465.531 617.716 476.243 622.312 485.406C625.236 491.234 629.777 496.118 634.469 500.562C639.455 505.286 644.76 509.647 650.312 513.688C654.016 516.383 657.861 518.952 661.844 521.219C666.159 523.675 670.691 525.815 675.531 527C679.042 527.859 682.707 528.156 686.312 527.906C702.575 526.781 716.803 515.121 726.219 502.562C728.636 499.339 730.739 495.932 732.844 492.5C734.906 489.137 736.927 485.756 738.906 482.344C746.079 469.98 752.618 457.285 758.938 444.469C764.643 432.898 770.156 421.114 777.156 410.25C780.582 404.934 784.414 399.912 788.469 395.062C793.437 389.12 798.761 383.457 804.469 378.219C817.416 366.336 833.454 355.163 851.438 353.562C852.798 351.934 845.805 343.845 835.812 335.5C825.82 327.155 816.61 321.715 815.25 323.344C796.095 325.057 779.22 336.995 765.594 349.812C755.837 358.99 746.795 369.476 739.531 380.75C732.121 392.251 726.365 404.758 720.312 417C713.668 430.438 706.737 443.693 699.094 456.594C695.8 462.153 692.505 467.824 688.625 473C681.783 482.127 672.9 490.237 662.281 494.688C660.319 495.51 658.255 496.19 656.125 496.719C656.004 493.683 656.086 490.644 656.375 487.625C657.194 479.059 659.294 470.641 661.938 462.469C665.789 450.561 670.919 439.08 676.719 428C681.325 419.199 686.092 410.473 690.844 401.75C701.09 382.938 711.613 364.269 722.906 346.062C732.959 329.856 743.587 314.019 754.625 298.469C760.696 289.916 766.907 281.463 773.188 273.062C776.795 268.236 780.391 263.375 784.219 258.719C789.198 252.662 794.5 246.898 800.219 241.531C810.311 232.061 821.696 223.908 834.188 217.906C846.679 211.904 860.174 208.136 873.938 206.594C882.871 205.593 891.921 205.539 900.719 207.594C901.919 207.874 903.119 208.234 904.312 208.594C906.04 211.182 907.642 213.845 909.094 216.594C916.957 231.478 922.131 247.626 925.969 263.969C929.392 278.544 931.79 293.374 933.438 308.25C935.322 325.266 936.252 342.38 936.25 359.5C936.248 375.003 935.492 390.501 933.719 405.906C932.355 417.754 930.401 429.582 927.5 441.156C926.428 445.432 925.221 449.656 923.844 453.844C922.843 456.886 921.765 459.906 920.562 462.875C914.615 477.564 904.816 494.261 888.062 497.812C886.706 499.456 893.757 507.522 903.844 515.844C913.93 524.165 923.206 529.581 924.562 527.938C938.497 524.979 947.662 513.596 953.938 501.531C959.075 491.655 962.58 480.961 965.281 470.188C969.053 455.144 971.236 439.752 972.562 424.312C975.378 391.549 974.341 358.292 969.906 325.719C966.96 304.084 962.523 282.376 954.781 261.906C950.502 250.589 945.237 239.43 938.188 229.562C929.861 217.908 919.109 208.082 907.812 199.375C898.03 191.835 887.424 184.708 875.781 180.344C869.981 178.17 863.941 176.767 857.781 176.125C855.624 175.9 853.444 175.764 851.281 175.719Z" fill="#ff9f11" stroke="none"/>
</g>
</g>
</g>
</g>
<g clip-path="url(#ArtboardFrame)" id="Ebene-9" vectornator:layerName="Ebene 9">
<path d="M817.732 61.4141C817.732 61.4141 846.032 79.5566 861.325 103.067C876.619 126.578 859.455 155.048 859.455 155.048L955.157 135.959C955.157 135.959 945.975 132.175 934.562 113.972C927.636 102.924 913.121 76.1064 910.786 52.7754C909.274 37.6622 882.872 26.2595 882.872 26.2595L849.274 33.6179" fill="#ffffff" fill-rule="nonzero" filter="url(#Filter_9)" stroke="none" vectornator:layerName="Kurve 2" vectornator:shadowAngle="1.5708" vectornator:shadowColor="#000000" vectornator:shadowOffset="10" vectornator:shadowOpacity="0.333" vectornator:shadowRadius="10.6849"/>
<g filter="url(#Filter_10)" vectornator:layerName="Kurve 1" vectornator:shadowAngle="1.5708" vectornator:shadowColor="#000000" vectornator:shadowOffset="0" vectornator:shadowOpacity="0.19707" vectornator:shadowRadius="21.8151">
<path d="M875.562 20.4375C869.806 20.4272 864.027 21.6284 858.594 23.4375C846.628 27.422 835.39 34.5226 826.75 43.7188C821.902 48.8791 817.882 54.844 815.719 61.625C814.958 62.6092 819.242 67.1788 825.281 71.8438C831.32 76.5087 836.833 79.4842 837.594 78.5C839.976 71.0252 844.643 64.5946 850.188 59.125C859.055 50.3769 870.341 43.5849 882.312 40.0938C887.825 38.4864 893.659 37.5597 899.406 38.0625C899.743 38.0919 900.07 38.1789 900.406 38.2188C902.035 42.6275 902.793 47.3646 903.062 52.0312C903.283 55.8549 903.122 59.7055 902.594 63.5C899.253 87.5065 881.442 105.663 863.344 120.156C858.729 123.852 853.971 127.369 849.281 130.969C846.292 133.263 843.289 135.584 840.531 138.156C838.427 140.119 835.049 143.347 835.531 146.562C835.68 147.557 836.14 148.535 836.719 149.344C837.251 150.087 837.815 150.8 838.438 151.469C839.725 152.851 841.023 154.217 842.438 155.469C846.085 158.696 850.011 161.657 854.094 164.312C856.041 165.579 858.181 166.642 860.344 167.5C862.885 168.509 865.545 169.199 868.219 169.75C871.079 170.34 873.917 170.707 876.844 170.625C884.844 170.401 892.683 167.835 900.125 165.062C913.46 160.094 926.196 153.666 939.562 148.781C947.775 145.78 956.511 142.873 965.375 143.625C966.161 142.706 962.231 138.044 956.594 133.219C950.956 128.394 945.724 125.206 944.938 126.125C936.536 125.417 928.141 127.765 920.312 130.625C918.24 131.382 916.15 132.105 914.094 132.906C909.027 134.881 904.02 137.09 899.031 139.25C890.347 143.01 881.678 146.916 872.656 149.812C870.8 150.409 868.9 150.885 867 151.375C871.54 147.684 876.262 144.173 880.875 140.594C900.63 125.267 920.871 106.287 924.5 80.2188C925.092 75.9661 925.207 71.6559 924.906 67.375C924.549 62.2909 923.634 57.1555 921.656 52.4375C918.487 44.8768 912.403 39.0307 906.156 33.9375C902.868 31.2561 899.425 28.7584 895.812 26.5312C891.338 23.7729 886.528 21.6816 881.312 20.875C879.41 20.5807 877.481 20.4409 875.562 20.4375Z" fill="#ff9f11" stroke="none"/>
</g>
</g>
</svg>
